PathFileType	4	(X/Y/Z)	OpenSim_Sub03_EMGStiffKnee_Accel.trc
DataRate	CameraRate	NumFrames	NumMarkers	Units	OrigDataRate	OrigDataStartFrame	OrigNumFrames
100	100	17	8	m	100	3799	7597
Frame#	Time	torso_imu_offset_imu	pelvis_imu_offset_imu	tibia_r_imu_offset_imu	femur_r_imu_offset_imu	tibia_l_imu_offset_imu	femur_l_imu_offset_imu	toes_r_imu_offset_imu	toes_l_imu_offset_imu
				X1	Y1	Z1	X2	Y2	Z2	X3	Y3	Z3	X4	Y4	Z4	X5	Y5	Z5	X6	Y6	Z6	X7	Y7	Z7	X8		Y8	Z8	

3799	37.98000000	10.19632448	1.97111388	4.55145167	9.76242124	0.02520781	3.39333601	13.42212815	-0.60660751	6.80636440	9.65049460	-4.42936536	3.40076620	10.52848882	-0.78205076	-0.49185366	9.86982017	0.52931173	-1.30379931	2.62605628	-7.96487656	16.13304992	5.59500160	1.94281021	11.22376805
3800	37.99000000	11.29763996	1.78817936	4.38456584	9.99645559	1.24655102	3.82494701	14.34956252	-9.08943177	5.43907728	14.08132673	-4.73510704	2.79891495	11.39462743	0.09918681	-0.47481394	10.68671470	0.83985798	-1.17053664	-0.04234050	-5.11176599	7.20273200	5.57694446	1.66776793	11.43814440
3801	38	12.18951150	1.41575798	3.98442346	10.68044272	2.60522367	3.69022170	11.47878741	-11.90113769	3.17354276	13.95717529	-1.52204270	3.98640796	11.98679997	0.52186359	-0.33351971	11.70549321	0.75520547	-0.96021368	14.62309819	-15.66835976	10.79611898	5.33124641	2.13833958	11.53893487
3802	38.01000000	12.26900170	0.83660477	3.93660440	11.72569681	3.14233460	4.00493600	9.28211189	-3.84405121	-0.35050129	10.81976849	1.56572964	7.22066466	12.17468177	0.33089591	-0.70822736	12.53787156	0.69349912	-0.68556612	18.48128993	-5.69142077	11.74074234	5.06808663	3.30592625	12.51693416
3803	38.02000000	12.22982379	0.28374923	4.31693110	12.48338290	2.16244155	4.51425605	9.43189546	7.60949077	-3.05976558	8.71178510	-0.25951943	4.93293321	13.24738609	0.83062188	0.10909993	13.36965512	0.78721768	-0.71500666	10.82158847	5.33126238	12.35652101	5.19982381	1.73146789	12.49180041
3804	38.03000000	12.59554348	0.00304334	4.63364797	13.13402763	0.22078621	4.94603895	9.17664790	19.69555797	-3.42990836	8.04943992	-4.91051746	-0.40066732	13.92922736	1.95995339	1.40384399	13.42754844	0.63475170	-0.86253917	9.64160761	2.05113414	9.70753756	5.24388357	2.13145969	12.71084718
3805	38.04000000	13.06326370	-0.14285457	4.86910213	13.11179906	-1.68685235	5.25843699	8.29792831	21.79832313	-2.09576585	10.35505315	-6.06446593	-3.69427701	13.15275347	3.15006773	2.41983563	13.01734756	-0.16316119	-0.62400194	11.13517538	-0.79030743	7.35235981	5.78503224	1.10940934	12.28692283
3806	38.05000000	13.41703426	-0.28320403	4.95116859	12.43700314	-2.22647339	5.52093020	9.50305693	13.42525496	-3.02012502	12.73581293	-4.10715471	-2.42084785	12.60422826	3.73110844	2.58079611	12.83046429	-1.15398888	-0.30129300	8.06951502	-1.91708989	8.12721275	5.64800815	0.78338442	12.36815938
3807	38.06000000	13.58372437	-0.36676936	4.82979149	11.92423326	-0.68681383	5.87493987	11.78359956	2.79643632	-1.47473954	13.15870681	0.18163334	0.38582963	12.50511343	3.32008424	2.36247346	12.84361358	-1.57721482	-0.29247237	6.22835272	-3.47293142	8.11785299	6.43944013	2.10949071	12.59611988
3808	38.07000000	13.55060370	-0.42661211	4.71911637	11.78857213	1.61478078	6.15974162	13.32782176	-2.56349070	-2.51440288	11.48034780	2.48636319	0.04353016	12.18231978	2.80281134	1.62265024	12.59195642	-1.39336322	-0.21592842	5.95773104	-3.20490273	8.12672897	6.99651524	2.45957846	12.21251783
3809	38.08000000	13.00999121	-0.53711382	4.63938084	11.38824432	3.28048099	6.21369419	10.79452550	0.61339808	-2.96556315	10.20853901	2.01499559	-0.39260444	11.74344446	1.96759687	0.92976283	11.99109055	-1.00317935	-0.20658647	6.35570806	-2.90837296	8.16296211	7.98022888	3.97789639	11.88069767
3810	38.09000000	12.30109007	-0.75086712	4.42833720	10.65579650	3.90413350	5.94875755	9.13346781	5.58307278	-1.85691369	10.76419364	0.86065293	-0.35611464	11.08978587	0.54402228	-0.08006365	11.39876422	-0.42725222	-0.08524801	7.13162037	-1.87554881	7.98728694	9.14946468	5.50364124	12.05796664
3811	38.10000000	11.56189600	-0.93823804	4.12988373	9.91869496	3.77258618	5.67199627	10.89725296	10.01507263	-2.26952898	11.31534591	-0.36391893	-0.62240942	10.35075084	-0.74282154	-0.63304537	10.87054215	0.00441414	-0.13922230	7.16325900	-1.09935877	8.01625643	8.53963678	6.24015104	12.00115871
3812	38.11000000	10.97194636	-1.04855762	3.94193780	9.43088432	3.29057725	5.39572077	10.32321930	10.99355486	-1.63153234	11.54926139	-1.18061025	-0.08486533	9.74000905	-1.77293012	-0.64795467	10.17772005	0.04667875	-0.04075044	6.45523605	-1.98604377	7.81313482	9.90002464	4.72646471	14.43247209
3813	38.12000000	10.62575888	-1.08850601	3.79372635	9.18275301	2.61070613	5.05920202	9.88384505	7.19479393	-1.50600831	11.23081528	-1.38358704	0.30432026	9.82364565	-4.20427902	-0.45420887	10.46927313	-0.24998682	-0.01764886	6.55691712	-2.52205973	7.52359288	3.88647646	4.21316361	18.87475045
3814	38.13000000	10.33134153	-1.17494996	3.67105804	9.21080069	1.85598525	4.58789885	10.42987243	3.45002470	-1.71170175	10.03322356	-0.78141244	-0.03739486	9.50849549	-6.78274373	-0.86790820	11.07011140	-0.81069007	-0.49593289	6.47595286	-2.52791340	7.70078076	-4.20208074	8.09410697	19.11115998
3815	38.14000000	10.03832091	-1.15142063	3.49898794	9.37540179	1.20357118	4.30377325	10.18728392	1.84321736	-1.16707080	9.24693793	-0.01421857	0.09610063	7.59227757	-3.75269047	0.18105155	10.64730258	-2.13358466	-0.33660345	6.04585425	-2.66173738	7.67936349	-2.54438751	10.02013709	18.63171653
